<svg xmlns="http://www.w3.org/2000/svg" xmlns:xlink="http://www.w3.org/1999/xlink"  style="display: none;">

  <title>Mix of icons</title>

  <defs>
    <clipPath id="circular-border">
      <circle cx="300" cy="300" r="280" />
    </clipPath>
    <clipPath id="avoid-antialiasing-bugs">
	  <rect width="100%" height="498" />
    </clipPath>
  </defs>

  <symbol id="icon-arrows-ccw" viewBox="0 0 512 512">
    <path d="m141 364c0 0 60-60 60-60c0 0 0 150 0 150c0 0-142-9-142-9c0 0 45-44 45-44c-39-41-59-91-58-148c1-57 21-107 62-148c34-34 75-53 122-59c0 0 2 52 2 52c-34 6-63 21-88 45c-30 30-45 67-46 109c0 43 14 80 43 112m170-307c0 0 142 9 142 9c0 0-45 44-45 44c39 41 59 91 58 148c-1 57-21 107-62 148c-32 33-73 53-122 60c0 0-1-53-1-53c33-6 62-21 87-45c30-30 45-67 46-109c0-43-14-80-43-112c0 0-59 60-59 60c0 0-1-150-1-150"/>
  </symbol>

  <symbol id="icon-menu" viewBox="0 0 512 512">
    <path d="m0 427l512 0 0-57-512 0z m0-143l512 0 0-56-512 0z m0-199l0 57 512 0 0-57z"/>
  </symbol>

  <symbol id="icon-add" viewBox="0 0 512 512">
    <path d="m512 293l-219 0 0 219-74 0 0-219-219 0 0-74 219 0 0-219 74 0 0 219 219 0z"/>
  </symbol>

  <symbol id="icon-close" viewBox="0 0 512 512">
    <path d="m512 51l-51-51-205 205-205-205-51 51 205 205-205 205 51 51 205-205 205 205 51-51-205-205z"/>
  </symbol>

  <symbol id="icon-trash-o" viewBox="0 0 512 512">
    <path d="m201 210l0 165c0 3-1 5-2 6-2 2-4 3-7 3l-18 0c-3 0-5-1-7-3-2-1-2-3-2-6l0-165c0-2 0-5 2-6 2-2 4-3 7-3l18 0c3 0 5 1 7 3 1 1 2 4 2 6z m73 0l0 165c0 3-1 5-2 6-2 2-4 3-7 3l-18 0c-3 0-5-1-7-3-1-1-2-3-2-6l0-165c0-2 1-5 2-6 2-2 4-3 7-3l18 0c3 0 5 1 7 3 1 1 2 4 2 6z m73 0l0 165c0 3 0 5-2 6-2 2-4 3-7 3l-18 0c-3 0-5-1-7-3-1-1-2-3-2-6l0-165c0-2 1-5 2-6 2-2 4-3 7-3l18 0c3 0 5 1 7 3 2 1 2 4 2 6z m37 207l0-271-256 0 0 271c0 4 1 8 2 12 1 3 3 6 4 7 2 2 3 3 3 3l238 0c0 0 1-1 3-3 1-1 3-4 4-7 1-4 2-8 2-12z m-192-307l128 0-14-34c-1-1-3-2-5-3l-90 0c-2 1-4 2-5 3z m265 9l0 18c0 3-1 5-2 7-2 1-4 2-7 2l-27 0 0 271c0 16-5 30-14 41-9 12-20 17-32 17l-238 0c-12 0-23-5-32-16-9-11-14-25-14-41l0-272-27 0c-3 0-5-1-7-2-1-2-2-4-2-7l0-18c0-3 1-5 2-7 2-1 4-2 7-2l88 0 20-48c3-7 8-13 16-18 7-5 15-7 22-7l92 0c7 0 15 2 22 7 8 5 13 11 16 18l20 48 88 0c3 0 5 1 7 2 1 2 2 4 2 7z"/>
  </symbol>

  <symbol id="icon-check" viewBox="0 0 512 512">
    <path d="m171 347l-120-119-40 39 160 160 341-342-40-39z"/>
  </symbol>

  <symbol id="icon-google-icon" viewBox="0 0 512 512">
    <path d="m435 239l-176 0 0 52 125 0c-6 73-67 105-125 105-73 0-138-58-138-140 0-79 61-140 138-140 60 0 94 38 94 38l37-38c0 0-47-52-133-52-109 0-193 92-193 192 0 97 79 192 196 192 103 0 178-70 178-175 0-22-3-34-3-34z"/>
  </symbol>

  <symbol id="icon-twitter" viewBox="0 0 512 512">
    <path d="m492 110c-13 18-29 35-49 50c0 0 0 12 0 12c0 44-10 87-30 128c-21 41-53 76-96 104c-43 28-92 42-148 42c-55 0-104-14-149-43c5 1 13 1 24 1c45 0 85-13 120-40c-21-1-40-8-56-20c-17-12-28-28-34-48c3 1 9 2 17 2c9 0 18-1 26-3c-23-5-41-16-56-34c-14-18-21-38-21-61c0 0 0-1 0-1c12 6 27 11 43 12c-29-20-43-47-43-81c0-16 4-32 13-48c53 64 119 98 200 100c-2-6-3-13-3-21c0-27 9-50 28-68c19-19 42-28 69-28c28 0 51 9 70 29c20-4 41-11 61-22c-7 22-21 40-42 53c19-3 38-8 56-15"/>
  </symbol>

  <symbol id="icon-delete" viewBox="0 0 512 512">
    <path d="m85 455c0 31 26 57 57 57l228 0c31 0 57-26 57-57l0-341-342 0z m370-427l-99 0-29-28-142 0-29 28-99 0 0 57 398 0z"/>
  </symbol>

  <symbol id="icon-send" viewBox="0 0 512 512">
    <path d="m11 456l468-200-468-200 0 155 334 45-334 45z"/>
  </symbol>

  <symbol id="icon-person-add" viewBox="0 0 512 512">
    <path d="m326 256c51 0 93-42 93-93 0-51-42-93-93-93-51 0-93 42-93 93 0 51 42 93 93 93z m-210-47l0-69-46 0 0 69-70 0 0 47 70 0 0 70 46 0 0-70 70 0 0-47z m210 94c-63 0-186 30-186 93l0 46 372 0 0-46c0-63-123-93-186-93z"/>
  </symbol>

  <symbol id="icon-more-horiz" viewBox="0 0 512 512">
    <path d="m64 192c-35 0-64 29-64 64 0 35 29 64 64 64 35 0 64-29 64-64 0-35-29-64-64-64z m384 0c-35 0-64 29-64 64 0 35 29 64 64 64 35 0 64-29 64-64 0-35-29-64-64-64z m-192 0c-35 0-64 29-64 64 0 35 29 64 64 64 35 0 64-29 64-64 0-35-29-64-64-64z"/>
  </symbol>

  <symbol id="icon-more-vert" viewBox="0 0 512 512">
    <path d="m256 128c35 0 64-29 64-64 0-35-29-64-64-64-35 0-64 29-64 64 0 35 29 64 64 64z m0 64c-35 0-64 29-64 64 0 35 29 64 64 64 35 0 64-29 64-64 0-35-29-64-64-64z m0 192c-35 0-64 29-64 64 0 35 29 64 64 64 35 0 64-29 64-64 0-35-29-64-64-64z"/>
  </symbol>

  <symbol id="profile-generic" viewBox="0 0 600 600">
    <circle cx="300" cy="300" r="280" fill="black" clip-path="url(#avoid-antialiasing-bugs)" />
    <circle cx="300" cy="230" r="115" fill="white"/>
    <circle cx="300" cy="550" r="205" fill="white" clip-path="url(#circular-border)" />
  </symbol> 

  <symbol id="icon-rotate-arrow-left" width="800px" height="800px" viewBox="0 0 305.836 305.836">
    <path d="M152.924,300.748c84.319,0,152.912-68.6,152.912-152.918c0-39.476-15.312-77.231-42.346-105.564
		c0,0,3.938-8.857,8.814-19.783c4.864-10.926-2.138-18.636-15.648-17.228l-79.125,8.289c-13.511,1.411-17.999,11.467-10.021,22.461
		l46.741,64.393c7.986,10.992,17.834,12.31,22.008,2.937l7.56-16.964c12.172,18.012,18.976,39.329,18.976,61.459
		c0,60.594-49.288,109.875-109.87,109.875c-60.591,0-109.882-49.287-109.882-109.875c0-19.086,4.96-37.878,14.357-54.337
		c5.891-10.325,2.3-23.467-8.025-29.357c-10.328-5.896-23.464-2.3-29.36,8.031C6.923,95.107,0,121.27,0,147.829
		C0,232.148,68.602,300.748,152.924,300.748z"/>
  </symbol>

  <symbol id="icon-enter-btn" width="800px" height="800px" viewBox="0 0 24 24">
    <path fill="black" d="M21,4 C21.5128358,4 21.9355072,4.38604019 21.9932723,4.88337887 L22,5 L22,11.5 
    C22,13.3685634 20.5357224,14.8951264 18.6920352,14.9948211 L18.5,15 L5.415,15 L8.70710678,18.2928932
    C9.06759074,18.6533772 9.09532028,19.2206082 8.79029539,19.6128994 L8.70710678,19.7071068 C8.34662282,20.0675907
    7.77939176,20.0953203 7.38710056,19.7902954 L7.29289322,19.7071068 L2.29289322,14.7071068 C2.25749917,14.6717127
    2.22531295,14.6343256 2.19633458,14.5953066 L2.12467117,14.4840621 L2.12467117,14.4840621 L2.07122549,14.371336
    L2.07122549,14.371336 L2.03584514,14.265993 L2.03584514,14.265993 L2.0110178,14.1484669 L2.0110178,14.1484669
    L2.00397748,14.0898018 L2.00397748,14.0898018 L2,14 L2.00278786,13.9247615 L2.00278786,13.9247615 L2.02024007,13.7992742
    L2.02024007,13.7992742 L2.04973809,13.6878575 L2.04973809,13.6878575 L2.09367336,13.5767785 L2.09367336,13.5767785
    L2.14599545,13.4792912 L2.14599545,13.4792912 L2.20970461,13.3871006 L2.20970461,13.3871006 L2.29289322,13.2928932
    L2.29289322,13.2928932 L7.29289322,8.29289322 C7.68341751,7.90236893 8.31658249,7.90236893 8.70710678,8.29289322
    C9.06759074,8.65337718 9.09532028,9.22060824 8.79029539,9.61289944 L8.70710678,9.70710678 L5.415,13 L18.5,13
    C19.2796961,13 19.9204487,12.4051119 19.9931334,11.64446 L20,11.5 L20,5 C20,4.44771525 20.4477153,4 21,4 Z"/>
  </symbol>

  <symbol id="icon-enter-btn2" width="128px" height="128px" viewBox="0 0 128 128">
    <polygon fill="black" points="112.4560547,23.3203125 112.4560547,75.8154297 31.4853516,75.8154297 31.4853516,61.953125     16.0131836,72.6357422 0.5410156,83.3164063 16.0131836,93.9990234 31.4853516,104.6796875 31.4853516,90.8183594     112.4560547,90.8183594 112.4560547,90.8339844 127.4589844,90.8339844 127.4589844,23.3203125   "/>
  </symbol>

  <symbol id="heart-like" width="24px" height="24px" fill-rule="evenodd" clip-rule="evenodd">
    <path d="M12 21.593c-5.63-5.539-11-10.297-11-14.402 0-3.791 3.068-5.191 5.281-5.191 1.312 0 4.151.501 5.719 4.457 1.59-3.968 4.464-4.447 5.726-4.447 2.54 0 5.274 1.621 5.274 5.181 0 4.069-5.136 8.625-11 14.402m5.726-20.583c-2.203 0-4.446 1.042-5.726 3.238-1.285-2.206-3.522-3.248-5.719-3.248-3.183 0-6.281 2.187-6.281 6.191 0 4.661 5.571 9.429 12 15.809 6.43-6.38 12-11.148 12-15.809 0-4.011-3.095-6.181-6.274-6.181"/>
  </symbol>
  
  <symbol fill="#000000" height="800px" width="800px" id="like-icon" viewBox="0 0 490.1 490.1" xml:space="preserve">
    <g>
      <path d="M201.9,21.018c-18.6,13.6-28,36.9-28,69v76.2H68.3c-37.6,0-68.3,30.6-68.3,68.3v2.1c0,0.6,0.1,1.3,0.2,1.9l28.1,176.5
        c5.2,42.4,34.8,66.8,81.1,66.8h209.2c37.6,0,68.3-30.6,68.3-68.3v-196.1c0-5.9,4.8-10.7,10.7-10.7h57.3c5.9,0,10.7,4.8,10.7,10.7
        v207.9c0,5.9-4.8,10.7-10.7,10.7h-33.1c-6.8,0-12.3,5.5-12.3,12.3s5.5,12.3,12.3,12.3h33.1c19.4,0,35.2-15.8,35.2-35.2v-208
        c0-19.4-15.8-35.2-35.2-35.2h-57.3c-13.8,0-25.8,8-31.6,19.6c-0.8-0.5-1.7-0.8-2.7-1.1c-3.3-0.9-81.4-23.8-81.4-91.2v-85.6
        c0-5.4-3.5-10.1-8.6-11.7C271.7,11.718,231.3-0.582,201.9,21.018z M356.8,224.218c1.9,0.5,3.8,0.6,5.6,0.2v189.1
        c0,24.1-19.6,43.8-43.8,43.8h-66.4H109.4c-34,0-53.1-15.2-56.9-45.7l-28-176v-1.1c0-24.1,19.6-43.8,43.8-43.8h117.9
        c6.8,0,12.3-5.5,12.3-12.3v-88.4c0-23.9,6-40.4,17.9-49.2c12.9-9.6,30.7-8.7,41.1-7v75.6
        C257.5,195.418,352.7,223.118,356.8,224.218z"/>
    </g>
  </symbol>

  <symbol fill="#000000" height="800px" width="800px" id="share-icon" viewBox="0 0 489 489" xml:space="preserve">
    <g>
      <path d="M59.7,255.005c-44,53.5-59.7,116.5-59.7,157.6c0,5.6,3.7,10.4,9.1,11.8c1,0.3,2.1,0.4,3.1,0.4c4.3,0,8.4-2.3,10.7-6.2
        c62.3-109.8,179.8-115.6,256.5-115.9v79.5c0,4.7,2.7,9.1,7,11.1s9.4,1.4,13-1.6l185.2-153.2c2.8-2.3,4.4-5.8,4.4-9.4
        c0-3.7-1.6-7.1-4.5-9.4l-185-152.7c-3.7-3-8.7-3.7-13-1.6c-4.3,2-7,6.3-7,11.1v79.8C161.7,160.605,95.1,211.905,59.7,255.005z
        M291.8,180.405c6.7-0.1,12.1-5.5,12.1-12.3v-65.7l153.6,126.7l-153.6,127.1v-65.7c0-3.2-1.3-6.4-3.6-8.7c-2.3-2.3-5.4-3.6-8.7-3.6
        c-71.3,0-184.7,0-260.6,86.6C50.1,289.405,115.8,182.105,291.8,180.405z"/>
    </g>
  </symbol>

<symbol fill="#000000" id="comments-icon" width="800px" height="800px" viewBox="0 0 485.87 485.869" xml:space="preserve">
  <g>
    <g>
      <path d="M41.766,378.467h260.393v107.402l99.884-107.402h42.061V0H41.766V378.467z M376.792,158.709
        c18.829,0,34.091,15.264,34.091,34.09c0,18.83-15.265,34.09-34.091,34.09s-34.091-15.264-34.091-34.09
        C342.703,173.971,357.964,158.709,376.792,158.709z M287.554,158.709c18.828,0,34.09,15.264,34.09,34.09
        c0,18.83-15.264,34.09-34.09,34.09c-18.829,0-34.093-15.264-34.093-34.09C253.461,173.971,268.725,158.709,287.554,158.709z
        M198.314,158.709c18.829,0,34.091,15.264,34.091,34.09c0,18.83-15.264,34.09-34.091,34.09c-18.83,0-34.09-15.264-34.09-34.09
        C164.224,173.971,179.485,158.709,198.314,158.709z M109.074,158.709c18.83,0,34.092,15.264,34.092,34.09
        c0,18.83-15.265,34.09-34.092,34.09c-18.825,0-34.09-15.264-34.09-34.09C74.984,173.971,90.246,158.709,109.074,158.709z"/>
    </g>
  </g>
</symbol>

</svg>
